<svg width="214" height="37" viewBox="0 0 214 37" fill="none" xmlns="http://www.w3.org/2000/svg">
<path d="M67.856 8.2C69.44 8.2 70.816 8.456 71.984 8.968C73.152 9.464 74.048 10.192 74.672 11.152C75.296 12.096 75.608 13.208 75.608 14.488C75.608 15.8 75.288 16.936 74.648 17.896C74.024 18.856 73.128 19.6 71.96 20.128C70.792 20.64 69.416 20.896 67.832 20.896H65.648V25H60.416V8.2H67.856ZM67.712 16.72C68.544 16.72 69.192 16.528 69.656 16.144C70.136 15.76 70.376 15.216 70.376 14.512C70.376 13.824 70.136 13.296 69.656 12.928C69.192 12.56 68.544 12.376 67.712 12.376H65.648V16.72H67.712ZM82.5905 18.352V20.872H91.9505V25H77.4785V8.2H91.7345V12.328H82.5905V14.584H90.5585V18.352H82.5905ZM107.39 25H94.166V8.2H99.35V20.68H107.39V25ZM117.151 25.336C115.391 25.336 113.807 24.96 112.399 24.208C110.991 23.456 109.887 22.424 109.087 21.112C108.303 19.784 107.911 18.288 107.911 16.624C107.911 14.96 108.303 13.464 109.087 12.136C109.887 10.792 110.991 9.744 112.399 8.992C113.823 8.24 115.415 7.864 117.175 7.864C118.951 7.864 120.543 8.24 121.951 8.992C123.359 9.744 124.455 10.784 125.239 12.112C126.039 13.424 126.439 14.912 126.439 16.576C126.439 18.24 126.039 19.744 125.239 21.088C124.439 22.416 123.335 23.456 121.927 24.208C120.519 24.96 118.927 25.336 117.151 25.336ZM117.175 20.872C118.311 20.872 119.239 20.48 119.959 19.696C120.695 18.912 121.063 17.888 121.063 16.624C121.063 15.792 120.895 15.048 120.559 14.392C120.239 13.736 119.783 13.224 119.191 12.856C118.599 12.488 117.927 12.304 117.175 12.304C116.423 12.304 115.751 12.488 115.159 12.856C114.567 13.208 114.103 13.712 113.767 14.368C113.447 15.024 113.287 15.768 113.287 16.6C113.287 17.432 113.447 18.176 113.767 18.832C114.103 19.472 114.567 19.976 115.159 20.344C115.751 20.696 116.423 20.872 117.175 20.872ZM127.026 8.2H142.29V12.544H137.274V25H132.018V12.544H127.026V8.2ZM149.27 18.352V20.872H158.63V25H144.158V8.2H158.414V12.328H149.27V14.584H157.238V18.352H149.27ZM170.974 25L167.494 20.248H166.078V25H160.846V8.2H168.526C170.11 8.2 171.486 8.448 172.654 8.944C173.822 9.424 174.718 10.12 175.342 11.032C175.966 11.928 176.278 13 176.278 14.248C176.278 15.496 175.966 16.568 175.342 17.464C174.734 18.36 173.854 19.048 172.702 19.528L176.734 25H170.974ZM166.078 12.376V16.36H168.382C169.214 16.36 169.862 16.192 170.326 15.856C170.806 15.504 171.046 15 171.046 14.344C171.046 13.72 170.806 13.24 170.326 12.904C169.862 12.552 169.214 12.376 168.382 12.376H166.078ZM197.039 25H191.543L190.583 22.456H183.767L182.783 25H177.359L184.583 8.2H189.815L197.039 25ZM187.199 13.552L185.135 18.88H189.215L187.199 13.552ZM205.514 25.336C203.93 25.336 202.45 25.136 201.074 24.736C199.714 24.32 198.562 23.768 197.618 23.08L199.586 19.456C201.858 20.752 203.866 21.4 205.61 21.4C206.17 21.4 206.618 21.304 206.954 21.112C207.306 20.904 207.482 20.632 207.482 20.296C207.482 19.864 207.282 19.552 206.882 19.36C206.482 19.152 205.746 18.936 204.674 18.712C202.53 18.264 200.882 17.632 199.73 16.816C198.594 15.984 198.026 14.776 198.026 13.192C198.026 12.056 198.338 11.088 198.962 10.288C199.586 9.488 200.434 8.888 201.506 8.488C202.578 8.072 203.794 7.864 205.154 7.864C207.986 7.864 210.322 8.616 212.162 10.12L209.834 13.312C209.162 12.832 208.426 12.464 207.626 12.208C206.842 11.936 206.058 11.8 205.274 11.8C203.962 11.8 203.306 12.168 203.306 12.904C203.306 13.256 203.514 13.552 203.93 13.792C204.346 14.032 205.058 14.256 206.066 14.464C207.602 14.784 208.842 15.152 209.786 15.568C210.746 15.984 211.474 16.536 211.97 17.224C212.466 17.896 212.714 18.752 212.714 19.792C212.714 20.928 212.402 21.92 211.778 22.768C211.154 23.6 210.29 24.24 209.186 24.688C208.098 25.12 206.874 25.336 205.514 25.336Z" fill="#54086F"/>
<path d="M36.2871 1.1265C37.0494 1.50976 37.7439 2.01488 38.3434 2.62193C38.5378 2.81945 38.7291 3.04127 38.7845 3.31855C38.9503 4.1535 37.8281 4.71303 37.0006 4.58655C35.3407 4.33357 34.2316 2.84749 33.0371 1.6823C31.8426 0.517116 29.9609 -0.41441 28.5415 0.571949C27.4785 1.30845 26.8828 2.99516 25.6241 2.94968C25.2328 2.93535 24.882 2.73658 24.5256 2.58454C22.4295 1.68729 19.7047 2.5079 18.3289 4.45383C19.1327 3.85192 20.3546 3.28054 20.9609 4.04009C21.5248 4.7473 20.8519 5.85454 20.0611 6.34554C18.0947 7.57304 15.2889 6.94184 14.1206 5.009C13.7922 5.91997 13.9885 6.98733 14.6116 7.67959C15.2347 8.37184 16.2565 8.65971 17.1706 8.39988C17.5974 8.27838 18.0386 8.04597 18.4542 8.17308C18.9383 8.32137 19.1577 8.93388 19.033 9.44419C18.9084 9.9545 18.529 10.3689 18.1239 10.7028C17.0915 11.5574 15.8068 12.0491 14.4676 12.1023C12.4052 12.1684 10.382 11.1403 8.35819 11.6269C6.14932 12.1584 4.67757 14.2931 3.43574 16.2565C5.41967 14.8738 7.97062 14.4053 10.2275 15.0103C11.0076 15.2184 11.8886 15.7798 11.7565 16.6054C11.7111 16.8858 11.5491 17.1369 11.3634 17.3531C10.5141 18.3501 9.18254 18.7526 7.91828 18.9034C5.1343 19.2349 2.28302 18.5501 0 17.0011C1.49106 19.4885 3.86319 21.7734 6.76992 21.7123C8.48218 21.6768 10.111 20.8281 11.817 20.5963C13.523 20.3645 15.5998 21.1191 15.8048 22.8457C15.9157 23.786 15.396 24.7518 14.6427 25.3443C13.8894 25.9369 12.9379 26.198 12.0058 26.279C10.6267 26.3992 9.24055 26.1475 7.99181 25.5499C9.28473 28.3788 12.6557 29.9789 15.6964 29.205C17.112 28.8449 18.6928 28.0554 19.8942 28.8311C20.8288 29.4331 21.0157 30.9011 20.3615 31.8569C19.7072 32.8127 18.3676 33.1698 17.337 32.7548C18.0697 34.2814 19.9365 34.8988 21.6282 34.7661C23.3199 34.6334 24.9269 33.9131 26.5619 33.3953C27.1657 33.2047 27.8941 33.0669 28.3458 33.49C28.8617 33.9748 28.6412 34.9325 28.0903 35.4216C27.5395 35.9107 26.7893 36.0516 26.0802 36.1749C27.3221 37.2622 29.3596 37.2766 30.6992 36.2073C31.5516 35.5269 32.1785 34.4515 33.2159 34.1761C33.7854 34.0246 34.378 34.1505 34.9606 34.1007C35.458 34.0567 35.9371 33.8911 36.3554 33.6183C36.7738 33.3456 37.1186 32.9741 37.3595 32.5367C38.2368 31.999 38.1427 34.3144 37.448 35.006C36.7532 35.6977 35.7345 35.874 34.788 36.0148C36.6672 36.2017 38.6574 35.2671 39.7852 33.667C40.4426 32.7323 40.8046 31.6326 41.2937 30.602C42.3804 28.3146 44.1319 26.2958 44.6728 23.8333C45.0398 22.164 44.8117 20.4269 45.1712 18.7557C45.5519 16.9774 45.8959 15.8309 45.3139 14.0825C44.9575 13.0102 44.7531 11.9017 44.4472 10.8131C43.6876 8.08958 42.2427 5.63397 40.2139 3.73228C39.0625 2.64695 37.7346 1.76574 36.2871 1.1265Z" fill="url(#paint0_linear_756_1158)"/>
<path d="M13.7435 8.98418C13.0269 8.76049 12.2798 8.60471 11.5296 8.63836C10.7794 8.67201 10.023 8.90629 9.44971 9.39106C10.2597 9.05085 11.1906 9.42658 11.9302 9.90137C12.6699 10.3762 13.3808 10.9706 14.2482 11.1152C14.8079 11.2009 15.3802 11.0909 15.8682 10.8036C16.1517 10.6385 16.8888 10.1182 16.7368 9.7051C16.6091 9.35866 15.9417 9.37548 15.6532 9.35492C15.004 9.30875 14.3628 9.18427 13.7435 8.98418Z" fill="url(#paint1_linear_756_1158)"/>
<path d="M25.5571 0.979514C25.7933 0.950229 25.9896 0.779501 26.222 0.730277C26.3821 0.695383 26.5485 0.719061 26.7111 0.70473C27.1946 0.66049 27.3753 0.311557 27.7006 0.0224415C27.3136 -0.00684398 27.0152 -0.0367525 26.6569 0.137091C26.4401 0.244353 26.2351 0.373819 26.045 0.523409C25.9472 0.598804 25.6593 0.966429 25.5571 0.979514Z" fill="url(#paint2_linear_756_1158)"/>
<path d="M30.2864 31.6176C37.8803 31.6176 44.0363 25.4616 44.0363 17.8677C44.0363 10.2739 37.8803 4.11792 30.2864 4.11792C22.6926 4.11792 16.5366 10.2739 16.5366 17.8677C16.5366 25.4616 22.6926 31.6176 30.2864 31.6176Z" fill="#F2F2F2"/>
<path style="mix-blend-mode:soft-light" d="M30.2864 31.6176C37.8803 31.6176 44.0363 25.4616 44.0363 17.8677C44.0363 10.2739 37.8803 4.11792 30.2864 4.11792C22.6926 4.11792 16.5366 10.2739 16.5366 17.8677C16.5366 25.4616 22.6926 31.6176 30.2864 31.6176Z" fill="url(#paint3_radial_756_1158)"/>
<path d="M21.0296 13.9573C21.0296 13.9573 20.3037 11.9459 20.8483 9.51025C20.8483 9.51025 19.366 9.94642 18.7921 10.5994C18.7921 10.5994 17.1284 12.5933 16.8711 16.4229C16.8711 16.4229 16.8711 17.2248 18.2475 18.0722C18.2463 18.0697 19.1996 15.2415 21.0296 13.9573Z" fill="url(#paint4_linear_756_1158)"/>
<path d="M24.4321 24.9236C24.4321 24.9236 22.1522 25.09 19.9701 23.751L19.8717 23.698C19.8717 23.698 19.3271 25.3548 20.144 26.9879C20.144 26.9879 22.0724 29.4386 24.7274 30.3009C24.7274 30.3009 26.3157 30.2554 27.2915 29.1438C27.2909 29.1426 24.8863 27.3045 24.4321 24.9236Z" fill="url(#paint5_linear_756_1158)"/>
<path d="M33.3739 20.4793C34.7347 18.0287 35.007 15.2148 35.007 15.2148C33.4642 13.4907 30.2877 11.6756 30.2877 11.6756V11.6719C30.2877 11.6719 27.1099 13.4869 25.5684 15.2111C25.5684 15.2111 25.8407 18.0249 27.2021 20.475C28.2083 20.7457 29.2457 20.8831 30.2877 20.8837V20.8874C31.3298 20.8869 32.3674 20.7497 33.3739 20.4793Z" fill="url(#paint6_linear_756_1158)"/>
<path d="M30.2866 7.29014C30.2866 7.29014 32.4954 6.07884 34.8096 6.10626C34.74 5.82322 34.6126 5.5576 34.4356 5.32602C34.2586 5.09444 34.0357 4.90187 33.7809 4.76038C33.7809 4.76038 32.8463 4.38216 30.2866 4.38216V4.37842C27.7319 4.37842 26.7923 4.75601 26.7923 4.75601C26.5371 4.89806 26.314 5.09133 26.1371 5.32369C25.9602 5.55605 25.8332 5.82248 25.7642 6.10626C28.0783 6.07635 30.2866 7.2864 30.2866 7.2864V7.29014Z" fill="url(#paint7_linear_756_1158)"/>
<path d="M41.7831 10.6014C41.2086 9.95087 39.7269 9.51221 39.7269 9.51221C40.2708 11.9479 39.5449 13.9592 39.5449 13.9592C41.3756 15.2453 42.3283 18.0717 42.3283 18.0717C43.7047 17.2242 43.7047 16.4223 43.7047 16.4223C43.4467 12.5984 41.7831 10.6014 41.7831 10.6014Z" fill="#F5A06F"/>
<path d="M40.6633 23.7397C38.4819 25.0763 36.139 24.9236 36.139 24.9236C35.6854 27.3057 33.2803 29.1438 33.2803 29.1438C34.256 30.2554 35.8443 30.3009 35.8443 30.3009C38.4987 29.4386 40.4272 26.9879 40.4272 26.9879C41.244 25.3548 40.6995 23.698 40.6995 23.698L40.6633 23.7397Z" fill="url(#paint8_linear_756_1158)"/>
<g style="mix-blend-mode:soft-light">
<path d="M30.2868 11.9492C30.2868 11.9492 27.2729 13.6739 25.8174 15.3619C25.8174 15.3619 26.1595 17.9851 27.3882 20.1865C27.3882 20.1865 26.4162 17.6362 26.2511 15.4348C26.2511 15.4348 28.5073 13.0502 30.2868 11.9492Z" fill="white"/>
</g>
<g style="mix-blend-mode:soft-light">
<path d="M41.3352 10.3159C41.3352 10.3159 40.4379 9.88533 39.9588 9.72021C39.9588 9.72021 40.5644 11.468 39.7251 13.7928C39.7251 13.7928 40.6467 12.0045 40.289 10.1327L41.3352 10.3159Z" fill="white"/>
</g>
<g style="mix-blend-mode:soft-light">
<path d="M20.6091 12.9671C20.6091 12.9671 20.3069 10.8941 20.6459 9.81177C20.6459 9.81177 19.5823 10.0672 18.9492 10.5825C18.9492 10.5825 19.8022 10.1788 20.325 10.0965C20.325 10.094 20.2334 11.6649 20.6091 12.9671Z" fill="white"/>
</g>
<g style="mix-blend-mode:soft-light">
<path d="M33.3415 4.74861C33.3415 4.74861 29.4248 4.25325 26.9667 4.88632C26.9667 4.88632 26.2813 5.23463 25.9946 5.9138C25.9946 5.9138 26.49 5.50069 27.462 5.18914C28.434 4.87759 31.529 4.60218 33.3415 4.74861Z" fill="white"/>
</g>
<g style="mix-blend-mode:soft-light">
<path d="M24.2245 25.1393C24.2245 25.1393 21.296 24.8826 20.023 24.0295C20.023 24.0295 19.6193 24.8184 20.124 26.4789C20.124 26.4789 19.9495 25.4514 20.1701 24.5523C20.1701 24.5498 22.1789 25.2035 24.2245 25.1393Z" fill="white"/>
</g>
<g style="mix-blend-mode:soft-light">
<path d="M39.9733 24.2957C39.9733 24.2957 38.3844 25.2621 36.2746 25.1885C36.2746 25.1885 35.8085 27.6809 33.6626 29.0561C33.6626 29.0561 35.6347 28.0591 36.4603 25.4328C36.4603 25.4328 38.8449 25.2309 39.9733 24.2957Z" fill="white"/>
</g>
<g style="mix-blend-mode:soft-light">
<path d="M33.1761 13.9573C33.1761 13.9573 32.5156 18.6068 28.0518 20.473C28.0518 20.473 31.1311 20.9596 33.282 20.258C33.282 20.258 34.6858 17.575 34.7569 15.277C34.7569 15.2789 33.9194 14.3461 33.1761 13.9573Z" fill="#010101"/>
</g>
<g style="mix-blend-mode:soft-light">
<path d="M20.5312 13.9268C20.5312 13.9268 18.5435 15.3536 17.4388 14.1648C17.4388 14.1648 17.1054 14.9898 17.0506 16.4758C17.0506 16.4758 16.9814 16.8335 18.1647 17.7557C18.1647 17.7582 18.7977 15.1206 20.5312 13.9268Z" fill="#010101"/>
</g>
<g style="mix-blend-mode:soft-light">
<path d="M40.5227 24.6992C40.5227 24.6992 38.3581 29.2117 34.541 29.689C34.9464 29.9088 35.4008 30.0224 35.862 30.0192C35.862 30.0192 38.8528 28.9736 40.2648 26.8452C40.266 26.8452 40.7352 25.4575 40.5227 24.6992Z" fill="#010101"/>
</g>
<g style="mix-blend-mode:soft-light">
<path d="M24.5767 26.6577C24.5767 26.6577 24.3567 28.7245 22.8569 29.1426C23.4516 29.5804 24.1173 29.9126 24.8247 30.1246C24.8247 30.1246 26.1039 29.99 26.8884 29.1426C26.8884 29.1426 25.4677 28.2366 24.5767 26.6577Z" fill="#010101"/>
</g>
<g style="mix-blend-mode:soft-light">
<path d="M41.498 15.747C41.498 15.747 42.7168 14.4534 42.3299 11.9492C42.3299 11.9492 43.3605 13.5867 43.5138 16.3938C43.5138 16.3938 43.3299 17.2605 42.5068 17.7022L41.498 15.747Z" fill="#010101"/>
</g>
<g style="mix-blend-mode:soft-light">
<path d="M30.2862 7.02351C30.2862 7.02351 32.6895 5.82219 34.5058 5.91378C34.5058 5.91378 34.35 5.14301 33.5886 4.87695C33.5886 4.87695 31.3044 6.35369 29.04 6.49139L30.2862 7.02351Z" fill="#010101"/>
</g>
<g style="mix-blend-mode:soft-light">
<path d="M41.3369 16.7515C41.3369 16.7515 40.9095 22.874 35.7085 23.5071C35.7085 23.5071 36.1764 24.3233 36.3939 24.6997C36.3939 24.6997 39.0009 24.6997 40.5288 23.4796C40.5288 23.4796 41.9799 20.9019 42.0074 17.8681C42.0105 17.8681 41.7644 16.944 41.3369 16.7515Z" fill="#010101"/>
</g>
<g style="mix-blend-mode:soft-light">
<path d="M30.2864 28.2217C30.2864 28.2217 28.5748 28.6654 26.4893 28.0379C26.4893 28.0379 27.1497 28.7351 27.48 28.9183C27.48 28.9183 30.4515 29.6343 33.0386 28.9183C33.0386 28.9183 35.1297 27.5376 35.9005 24.9262L35.2213 24.0295C35.2213 24.0295 34.1253 27.6248 30.2864 28.2217Z" fill="#010101"/>
</g>
<g style="mix-blend-mode:soft-light">
<path d="M33.3722 29.5884C33.3722 29.5884 32.2263 31.2452 25.8695 30.3L25.1841 30.4414C25.1841 30.4414 27.8204 31.4103 29.8068 31.4732C31.7932 31.5362 33.4258 31.2533 35.3654 30.3866C35.363 30.3866 34.0258 30.1772 33.3722 29.5884Z" fill="#010101"/>
</g>
<g style="mix-blend-mode:soft-light">
<path d="M42.1613 20.9613C42.1613 20.9613 41.623 22.8948 40.9376 23.7397C40.9376 23.7397 41.36 25.1049 40.8809 26.371C40.8809 26.371 43.3876 23.6294 43.7053 19.6416C43.7041 19.6404 43.0006 21.9383 42.1613 20.9613Z" fill="#010101"/>
</g>
<g style="mix-blend-mode:soft-light">
<path d="M26.3791 19.324C26.3791 19.324 26.6683 20.053 26.8197 20.301L24.2239 24.6215C24.2239 24.6215 21.8935 24.8552 20.1326 23.5891C19.6093 22.8833 19.1921 22.1047 18.8945 21.278C18.8945 21.278 20.2429 22.7111 22.8568 22.4475C25.4707 22.184 26.3791 19.324 26.3791 19.324Z" fill="#010101"/>
</g>
<g style="mix-blend-mode:soft-light">
<path d="M18.7914 22.3374C18.7914 22.3374 19.3398 23.3967 19.6956 23.8235C19.6956 23.8235 19.3398 25.1027 19.6956 26.3688C19.6956 26.3688 18.455 24.6242 17.9048 23.3555C17.9048 23.3555 18.8668 23.7824 18.7914 22.3374Z" fill="#010101"/>
</g>
<g style="mix-blend-mode:soft-light">
<path d="M38.0094 8.15186C38.0094 8.15186 39.131 8.84785 39.6438 9.87596C39.6438 9.87596 39.974 11.5091 39.4051 13.7927L35.0067 14.9025C35.0067 14.9025 33.1829 13.131 32.1953 12.683C32.1953 12.683 34.507 14.1691 37.0554 12.5546C39.0462 11.2947 38.0094 8.15186 38.0094 8.15186Z" fill="#010101"/>
</g>
<g style="mix-blend-mode:soft-light">
<path d="M38.8081 8.15191C38.8081 8.15191 39.5515 8.87657 39.8723 9.3981C39.8723 9.3981 40.8381 9.70964 41.2849 9.97571C41.2849 9.97571 40.4867 8.31578 38.8081 7.22412C38.8081 7.22786 39.8356 8.28712 38.8081 8.15191Z" fill="#010101"/>
</g>
<g style="mix-blend-mode:soft-light">
<path d="M29.9924 9.51221C29.9924 9.51221 27.5305 13.0134 24.4319 13.1966C21.3332 13.3798 20.8472 11.6719 20.8472 11.6719C20.8472 11.6719 20.8198 12.9511 21.1501 13.7904L25.4214 14.9026C25.4214 14.9026 28.5431 12.1697 29.9924 11.5273V9.51221Z" fill="#010101"/>
</g>
<g style="mix-blend-mode:soft-light">
<path d="M21.0301 8.90405C21.0301 8.90405 20.2824 9.22495 20.0419 8.97758C19.7208 9.3076 19.4434 9.67741 19.2163 10.078C19.2163 10.078 20.1609 9.50908 20.6837 9.41748" fill="#010101"/>
</g>
<path d="M33.2224 20.8051C33.2224 20.8051 30.3973 21.4843 27.4071 20.7253L24.6748 25.0297L27.7018 21.2506C27.7018 21.2506 30.3238 21.8507 33.2224 20.8051Z" fill="white"/>
<path d="M39.5441 14.2334L35.1575 15.4029C35.1575 15.4029 34.9606 18.6362 33.6621 20.3696C33.6621 20.3696 35.1295 19.159 35.6249 15.8834L39.5441 14.2334Z" fill="white"/>
<path d="M25.3192 15.4165L21.0821 14.2327C21.0821 14.2327 19.7736 14.834 18.4683 18.0697C18.4683 18.0697 19.3948 15.9661 21.0298 14.728L25.3192 15.4165Z" fill="white"/>
<path d="M16.8691 17.0398C16.8691 17.0398 17.362 17.8293 18.0499 18.1501C18.0499 18.1501 17.9215 19.9017 18.4674 21.4887C18.4674 21.4887 17.7751 20.0855 17.8393 18.4069C17.3681 18.0766 17.0254 17.5937 16.8691 17.0398Z" fill="white"/>
<path d="M32.2033 29.7166C32.2033 29.7166 29.5521 30.0836 27.4884 29.3958C27.4884 29.3958 26.7911 29.9646 26.2422 30.1248C26.2422 30.1248 27.2055 29.9553 27.5906 29.6712C27.5893 29.6712 29.8094 30.3036 32.2033 29.7166Z" fill="white"/>
<path d="M27.6023 6.51467C27.6023 6.51467 26.9455 6.32213 25.8159 6.28101C25.8159 6.28101 22.9016 6.85861 21.028 9.62391C21.028 9.62391 20.8604 10.4769 20.8467 11.0414C20.8467 11.0414 21.0666 10.1193 21.2872 9.73295C21.2872 9.73295 23.0107 7.46302 25.8159 6.59567C25.8165 6.59691 26.8733 6.52837 27.6023 6.51467Z" fill="white"/>
<path d="M34.6757 6.28082C34.6757 6.28082 32.736 6.25278 30.5483 7.39492V11.2886L30.8512 7.60178C30.8512 7.60178 31.979 6.65219 34.6757 6.28082Z" fill="white"/>
<path d="M36.3004 6.38365C36.3004 6.38365 35.4748 5.99172 34.9109 5.94748C34.9109 5.94748 34.714 5.1574 34.1401 4.83276C34.7264 4.94979 35.2951 5.14161 35.8325 5.40352C35.8325 5.40352 35.1651 5.21223 34.9109 5.23591L35.0692 5.6378C35.5029 5.84572 35.9153 6.09552 36.3004 6.38365Z" fill="white"/>
<path d="M22.3066 6.87202C22.3066 6.87202 24.07 5.58346 26.0627 5.04199C26.0627 5.04199 25.672 5.52551 25.6084 5.83457C25.5671 5.71056 25.572 5.5758 25.6221 5.4551C25.6221 5.4551 23.6625 5.9704 22.3066 6.87202Z" fill="white"/>
<path opacity="0.25" d="M34.566 15.9119C34.566 15.9119 34.0981 18.4846 33.1485 20.081C32.2194 20.3544 31.255 20.4886 30.2866 20.4791C30.2866 20.4791 32.1304 20.2698 32.9422 19.7508C32.9422 19.752 34.2221 17.7581 34.566 15.9119Z" fill="white"/>
<path opacity="0.46" d="M40.0968 26.8916C40.0968 26.8916 38.9416 28.7609 35.9009 29.8775C35.9009 29.8775 38.3098 28.526 40.0968 26.8916Z" fill="white"/>
<path opacity="0.25" d="M23.7466 29.478C24.0572 29.7089 24.4046 29.8857 24.7741 30.0008C24.7741 30.0008 25.9579 29.8712 26.6726 29.1428C26.6726 29.1428 26.0707 28.6985 25.8171 28.3914C25.8171 28.3914 26.0664 28.7901 26.1773 29.0194C26.2882 29.2487 25.0034 29.8295 24.7828 29.8083C24.5622 29.7871 23.7466 29.478 23.7466 29.478Z" fill="white"/>
<path opacity="0.25" d="M18.7906 15.8416C18.7906 15.8416 18.3165 16.7101 18.1052 17.4529C18.1052 17.4529 17.5002 17.0429 17.2329 16.6472C17.2329 16.6472 17.6385 16.9737 17.9115 17.0834C17.9127 17.0859 18.319 16.2565 18.7906 15.8416Z" fill="white"/>
<defs>
<linearGradient id="paint0_linear_756_1158" x1="0" y1="19.7502" x2="45.6199" y2="19.7502" gradientUnits="userSpaceOnUse">
<stop stop-color="#8ED2EB"/>
<stop offset="0.19" stop-color="#98BADC"/>
<stop offset="0.58" stop-color="#B17CB7"/>
<stop offset="1" stop-color="#CE348B"/>
</linearGradient>
<linearGradient id="paint1_linear_756_1158" x1="9.44971" y1="9.88953" x2="16.7561" y2="9.88953" gradientUnits="userSpaceOnUse">
<stop stop-color="#C5E6F0"/>
<stop offset="0.17" stop-color="#C6CEE2"/>
<stop offset="0.52" stop-color="#C990BF"/>
<stop offset="1" stop-color="#CE348B"/>
</linearGradient>
<linearGradient id="paint2_linear_756_1158" x1="25.5571" y1="0.489762" x2="27.7006" y2="0.489762" gradientUnits="userSpaceOnUse">
<stop stop-color="#C5E6F0"/>
<stop offset="0.17" stop-color="#C6CEE2"/>
<stop offset="0.52" stop-color="#C990BF"/>
<stop offset="1" stop-color="#CE348B"/>
</linearGradient>
<radialGradient id="paint3_radial_756_1158" cx="0" cy="0" r="1" gradientUnits="userSpaceOnUse" gradientTransform="translate(24.2879 9.03227) scale(21.7285)">
<stop stop-color="white"/>
<stop offset="1"/>
</radialGradient>
<linearGradient id="paint4_linear_756_1158" x1="17.2911" y1="13.789" x2="39.9125" y2="13.789" gradientUnits="userSpaceOnUse">
<stop stop-color="#C83780"/>
<stop offset="0.15" stop-color="#B04389"/>
<stop offset="0.47" stop-color="#7261A0"/>
<stop offset="0.93" stop-color="#1091C5"/>
<stop offset="1" stop-color="#0198CB"/>
</linearGradient>
<linearGradient id="paint5_linear_756_1158" x1="17.2902" y1="26.9985" x2="39.9116" y2="26.9985" gradientUnits="userSpaceOnUse">
<stop stop-color="#C83780"/>
<stop offset="0.15" stop-color="#B04389"/>
<stop offset="0.47" stop-color="#7261A0"/>
<stop offset="0.93" stop-color="#1091C5"/>
<stop offset="1" stop-color="#0198CB"/>
</linearGradient>
<linearGradient id="paint6_linear_756_1158" x1="17.2918" y1="16.2797" x2="39.9132" y2="16.2797" gradientUnits="userSpaceOnUse">
<stop stop-color="#C83780"/>
<stop offset="0.15" stop-color="#B04389"/>
<stop offset="0.47" stop-color="#7261A0"/>
<stop offset="0.93" stop-color="#1091C5"/>
<stop offset="1" stop-color="#0198CB"/>
</linearGradient>
<linearGradient id="paint7_linear_756_1158" x1="17.2907" y1="5.83459" x2="39.9121" y2="5.83459" gradientUnits="userSpaceOnUse">
<stop stop-color="#C83780"/>
<stop offset="0.15" stop-color="#B04389"/>
<stop offset="0.47" stop-color="#7261A0"/>
<stop offset="0.93" stop-color="#1091C5"/>
<stop offset="1" stop-color="#0198CB"/>
</linearGradient>
<linearGradient id="paint8_linear_756_1158" x1="33.2815" y1="27.0023" x2="40.8789" y2="27.0023" gradientUnits="userSpaceOnUse">
<stop stop-color="#8284B3"/>
<stop offset="0.16" stop-color="#8B81A9"/>
<stop offset="0.42" stop-color="#A37890"/>
<stop offset="0.76" stop-color="#CA6966"/>
<stop offset="1" stop-color="#EB5D43"/>
</linearGradient>
</defs>
</svg>
