<svg width="64" height="64" viewBox="0 0 64 64" fill="none" xmlns="http://www.w3.org/2000/svg">
<path d="M61.934 31.992C61.955 31.279 62.143 21.088 56.112 14.454C55.844 13.861 54.573 11.471 50.471 8.55C48.6525 7.13941 46.7209 5.88083 44.696 4.787L44.688 4.783C44.432 4.646 39.43 2 33.359 2C32.898 2 32.442 2.027 31.991 2.058V2.05C27.362 1.949 22.764 3.14 19.993 4.391C17.535 5.501 14.806 7.362 14.609 7.506C11.205 9.41 4.75 17.051 4.239 21.1C2.176 23.737 0.451998 35.582 4.243 42.797C6.901 52.824 16.907 57.842 17.703 58.227C18.187 58.536 23.64 61.907 30.339 61.907C30.62 61.907 32.319 62.001 32.925 62.001C40.166 62.001 50.896 56.897 53.142 52.899C59.313 48.385 62.512 36.752 61.934 31.992ZM17.758 47.055C14.889 42.414 13.254 36.35 12.904 34.957C13.812 33.596 18.291 26.992 20.843 25.005C22.288 25.271 28.322 26.379 34.013 27.409C34.728 29.262 37.865 37.438 38.763 40.594C37.773 41.768 33.884 46.296 30.055 49.842C25.99 49.861 19.076 47.516 17.758 47.055ZM53.824 14.58C53.812 15.03 53.705 16.63 52.939 18.467C51.418 17.69 47.595 16.026 42.355 15.745C41.562 14.574 38.578 10.491 33.865 7.659C34.51 6.397 35.408 4.858 35.933 4.389C36.103 4.341 36.367 4.297 36.769 4.297C39.296 4.297 43.662 5.952 44.042 6.099C44.445 6.312 52.293 10.538 53.824 14.58ZM11.773 34.012C8.35 33.428 6.315 32.364 5.707 32.004C4.434 27.387 5.459 22.397 5.617 21.682C6.873 19.436 10.449 13.711 12.808 12.624C15.253 12.125 18.302 12.745 19.544 13.048C19.427 14.663 19.202 19.175 19.87 23.91C17.164 26.088 12.881 32.357 11.773 34.012ZM31.685 3.53C32.453 3.587 33.58 3.755 34.352 3.984C33.582 5.008 32.793 6.526 32.42 7.276C30.85 7.533 24.887 8.673 20.209 11.706C19.266 11.456 16.418 10.789 13.721 11.019C14.389 9.726 15.387 8.77 15.494 8.672C15.865 8.406 23.007 3.409 31.685 3.517V3.53ZM50.781 41.623C49.611 41.575 45.103 41.318 40.16 40.157C39.213 36.855 36.086 28.713 35.371 26.861C37.6459 23.6184 39.9554 20.4003 42.299 17.207C47.987 17.519 51.981 19.594 52.754 20.027C56.049 25.326 56.772 30.738 56.871 31.642C55.121 37.088 51.66 40.755 50.781 41.623ZM3.655 28.519C3.739 29.785 3.942 31.118 4.309 32.436C3.97905 33.29 3.75016 34.1798 3.627 35.087C3.41815 32.9022 3.42753 30.702 3.655 28.519ZM13.299 51.878C14.807 50.425 16.666 49.011 17.387 48.477C19.017 49.051 25.711 51.314 29.978 51.314C30.705 52.289 33.082 55.342 35.996 57.676C34.182 59.451 31.562 60.289 31.099 60.428C22.972 60.646 15.057 56.078 13.299 51.878ZM34.762 60.416C35.684 59.879 36.645 59.172 37.44 58.277C38.737 58.098 44.303 57.14 49.333 53.445C49.665 53.481 50.212 53.525 50.823 53.508C47.805 56.465 40.441 59.768 34.762 60.416ZM50.186 52.04C51.993 47.332 51.916 43.782 51.827 42.648C52.819 41.676 56.223 38.049 58.112 32.535C59.13 32.705 59.792 32.964 60.106 33.109C60.215 33.509 60.397 34.433 60.294 35.834C59.524 40.877 56.866 48.434 52.21 51.775C51.742 52.014 50.918 52.066 50.186 52.04Z" fill="#54086F"/>
</svg>
